<svg aria-hidden="true" style="position: absolute; width: 0; height: 0; overflow: hidden;" version="1.1" xmlns="http://www.w3.org/2000/svg" xmlns:xlink="http://www.w3.org/1999/xlink">
    <defs>
       /*icons-body advantages container*/
        <symbol id="icon-antenna" viewBox="0 0 32 32">
            <path fill="#2e2f42" style="fill: var(--color1, #2e2f42)" d="M30.75 22.1l-8.4-8.5 0.9-4.6 0.8 0.1c0.004 0 0.010 0 0.015 0 1.187 0 2.15-0.963 2.15-2.15s-0.963-2.15-2.15-2.15c-1.187 0-2.15 0.963-2.15 2.15 0 0.269 0.050 0.527 0.14 0.765l-0.005-0.015-5 0.6-8.050-8.15c-0.089-0.091-0.213-0.148-0.35-0.15h-0c-0.012-0.001-0.027-0.002-0.041-0.002-0.141 0-0.268 0.058-0.359 0.152l-1.5 1.5c-0.104 0.092-0.169 0.226-0.169 0.375s0.065 0.283 0.169 0.375l0.001 0 0.75 0.85c-1.122 2.047-1.781 4.485-1.781 7.077 0 4.179 1.715 7.958 4.479 10.671l0.002 0.002-0.050 0.5v6.25h-6.4c-1.5 0-2.7 1.2-2.7 2.65v1.050c0 0.3 0.25 0.55 0.55 0.55h24.5c0.35 0 0.55-0.25 0.55-0.5v-1.1c0-1.5-1.15-2.65-2.65-2.65h-6.4v-2.75c0.895 0.19 1.924 0.299 2.978 0.299 2.609 0 5.063-0.666 7.2-1.838l-0.078 0.039 0.8 0.85c0.1 0.1 0.25 0.15 0.4 0.15s0.25 0 0.35-0.15l1.5-1.5c0.25-0.2 0.25-0.5 0-0.75zM23.25 6.25c0.189-0.184 0.448-0.298 0.733-0.298 0.58 0 1.050 0.47 1.050 1.050 0 0.556-0.432 1.011-0.979 1.048l-0.003 0c-0.005 0-0.010 0-0.015 0-0.58 0-1.050-0.47-1.050-1.050 0-0.294 0.121-0.559 0.315-0.75l0-0zM22 9.75l-0.5 2.95-1.25-1.2 1.75-1.75zM21.4 8.85l-1.9 1.9-1.5-1.5 3.4-0.4zM24 28.8c0.9 0 1.6 0.7 1.6 1.6v0.5h-23.5v-0.5c0-0.9 0.75-1.6 1.65-1.6h20.25zM16.5 26.65v1.1h-5.25v-1.1h5.35zM11.2 25.6v-4.050c0-1.3 1.2-2.35 2.65-2.35 1.5 0 2.7 1.050 2.7 2.35v4.050h-5.35zM17.6 23.9v-2.35c0-1.9-1.65-3.4-3.75-3.4-0.015-0-0.033-0-0.050-0-1.338 0-2.514 0.691-3.191 1.736l-0.009 0.015c-2.363-2.48-3.817-5.844-3.817-9.548 0-2.3 0.561-4.47 1.553-6.379l-0.036 0.077 18.6 18.7c-2.85 1.45-6.15 1.85-9.3 1.15zM28.9 23.2l-0.75-0.7-19.55-19.7-0.75-0.8 0.75-0.75 7.95 8 13.1 13.15-0.75 0.75z"></path>
            <path fill="#4d5ae5" style="fill: var(--color2, #4d5ae5)" d="M13.9 20.25c-0.884 0-1.6 0.716-1.6 1.6s0.716 1.6 1.6 1.6v0c0.884 0 1.6-0.716 1.6-1.6s-0.716-1.6-1.6-1.6v0zM14.25 22.25c-0.078 0.053-0.175 0.085-0.279 0.085-0.276 0-0.5-0.224-0.5-0.5 0-0.233 0.16-0.429 0.376-0.484l0.003-0.001c0.036-0.009 0.078-0.015 0.121-0.015 0.276 0 0.5 0.224 0.5 0.5 0 0.172-0.087 0.324-0.219 0.414l-0.002 0.001z"></path>
        </symbol>
        <symbol id="icon-astronaut" viewBox="0 0 32 32">
            <path fill="#4d5ae5" style="fill: var(--color2, #4d5ae5)" d="M32 4.5c-0.066-0.205-0.254-0.351-0.477-0.351-0.008 0-0.016 0-0.024 0.001l0.001-0-1.85-0.25-0.85-1.75c-0.2-0.35-0.8-0.35-1 0l-0.8 1.75-1.9 0.25c-0.276 0-0.5 0.224-0.5 0.5 0 0.163 0.078 0.308 0.199 0.399l0.001 0.001 1.4 1.35-0.35 1.9c-0.062 0.083-0.1 0.187-0.1 0.3 0 0.276 0.224 0.5 0.5 0.5 0.163 0 0.308-0.078 0.399-0.199l0.001-0.001 1.7-0.9 1.7 0.9c0.092 0.122 0.237 0.2 0.4 0.2 0.276 0 0.5-0.224 0.5-0.5 0-0.113-0.038-0.217-0.101-0.301l0.001 0.001-0.35-1.9 1.4-1.35c0.15-0.1 0.2-0.35 0.1-0.5zM29.5 5.85c-0.102 0.092-0.167 0.225-0.167 0.373 0 0.045 0.006 0.089 0.017 0.131l-0.001-0.003 0.2 1.1-1-0.5c-0.072-0.042-0.158-0.067-0.25-0.067s-0.178 0.025-0.252 0.068l0.002-0.001-1 0.5 0.2-1.15c0-0.15 0-0.35-0.15-0.45l-0.8-0.8 1.1-0.15c0.15 0 0.3-0.15 0.4-0.3l0.5-1 0.5 1c0.1 0.15 0.25 0.25 0.4 0.3l1.1 0.15-0.8 0.8zM26.15 20.5h-1.15v1.1h1.1v-1.1zM26.15 22.65h-1.15v1.050h1.1v-1zM27.2 21.6h-1.050v1.050h1.050v-1.050z"></path>
            <path fill="#4d5ae5" style="fill: var(--color2, #4d5ae5)" d="M25.050 21.6h-1.050v1.050h1.050v-1.050zM22.4 26.4h-1.050v1.050h1.050v-1.050zM22.4 28.5h-1.050v1.1h1.050v-1.1zM23.5 27.5h-1.1v1h1.050v-1zM21.35 27.5h-1.1v1h1.1v-1zM16 24.25h-1.050v1.050h1.050v-1zM16 26.4h-1.050v1.050h1.050v-1.050zM17.050 25.3h-1.050v1.1h1.050v-1.1z"></path>
        <path fill="#4d5ae5" style="fill: var(--color2, #4d5ae5)" d="M14.95 25.3h-1.1v1.1h1.15v-1.1zM5.85 6.1h-1.050v1.1h1.050v-1.1zM5.85 8.25h-1.050v1.050h1.050v-1zM6.95 7.2h-1.1v1.050h1.15v-1.050zM4.8 7.2h-1.050v1.050h1.050v-1.050z"></path>
            <path fill="#2e2f42" style="fill: var(--color1, #2e2f42)" d="M24.7 14.15c-0.27-0.369-0.675-0.625-1.14-0.699l-0.010-0.001c-0.5-0.050-1 0.050-1.35 0.35l-1.25 1-1.9 1.4-1.35-0.55c2.392-1.133 4.016-3.527 4.016-6.3 0-3.809-3.064-6.902-6.862-6.949l-0.004-0c-3.826 0.052-6.908 3.166-6.908 6.999 0 1.371 0.394 2.65 1.075 3.729l-0.017-0.029h-2.8c-0.023-0.004-0.049-0.006-0.075-0.006s-0.052 0.002-0.078 0.006l0.003-0h-0.050l-3.25 1.6-1.9 0.9-0.050 0.050c-0.409 0.333-0.668 0.836-0.668 1.399 0 0.994 0.806 1.8 1.8 1.8 0.26 0 0.506-0.055 0.729-0.154l-0.011 0.005 1.35-0.7 2.3-1.15h1.35l-5.45 5.35-1.35 1.35c-0.304 0.299-0.492 0.715-0.492 1.175s0.188 0.876 0.491 1.175l0 0c0.299 0.304 0.715 0.492 1.175 0.492s0.876-0.188 1.175-0.491l0-0 1.35-1.3 1.7-1.3 0.9 0.9-3.1 3.1c-0.304 0.299-0.492 0.715-0.492 1.175s0.188 0.876 0.491 1.175l0 0c0.302 0.319 0.728 0.518 1.2 0.518s0.898-0.199 1.199-0.517l0.001-0.001 1.3-1.35 3.15-3.15 5.25-5.65 3.5 0.5c0.009 0.001 0.020 0.001 0.030 0.001 0.080 0 0.156-0.019 0.223-0.052l-0.003 0.001 0.1-0.050 3.2-2.15h0.1l1.2-1.25c0.336-0.327 0.545-0.784 0.545-1.29 0-0.398-0.129-0.767-0.349-1.065l0.003 0.005zM2.15 17.75c-0.2 0.1-0.4 0.15-0.6 0.050-0.294-0.087-0.505-0.355-0.505-0.672 0-0.239 0.12-0.45 0.302-0.576l0.002-0.002 1.3-0.55 0.35 0.9 0.1 0.4-1 0.5zM5.65 15.95l-1.55 0.8-0.3-0.75-0.15-0.5 2-1v1.45zM20.75 9.3c0 0.95-0.25 1.8-0.6 2.6l-4.2-1.9c0-0.6-0.35-1.1-0.8-1.4l1.5-4.85c2.35 0.75 4.1 3 4.1 5.55zM8.95 9.3c0.030-3.236 2.66-5.848 5.9-5.848 0.264 0 0.525 0.017 0.78 0.051l-0.030-0.003-1.5 4.75c-1 0-1.9 0.85-1.9 1.85-0.003 0.036-0.004 0.079-0.004 0.121 0 1.022 0.828 1.85 1.85 1.85 0.72 0 1.343-0.411 1.649-1.011l0.005-0.010 3.85 1.75c-1.089 1.424-2.788 2.334-4.7 2.334-3.235 0-5.862-2.604-5.9-5.83l-0-0.004zM14.9 10.1c0 0.5-0.35 0.8-0.8 0.8-0.5 0-0.8-0.35-0.8-0.8 0-0.4 0.35-0.8 0.8-0.8s0.8 0.4 0.8 0.8zM2.45 25.1c-0.2 0.3-0.6 0.3-0.85 0-0.095-0.106-0.153-0.246-0.153-0.4s0.058-0.294 0.153-0.401l-0 0.001 1-1 0.8 0.9-0.9 0.95zM5.7 28.9c-0.25 0.2-0.65 0.2-0.9 0-0.109-0.109-0.176-0.259-0.176-0.425s0.067-0.316 0.176-0.425l1-1 0.4 0.45 0.45 0.4-1 1zM9.2 25.4l-1.8 1.75-0.4-0.4-0.5-0.45 1.8-1.75 0.1-0.1v-0.050l0.050-0.15v-0.25c-0.025-0.058-0.059-0.108-0.1-0.15l-1.65-1.65h-0.050l-0.1-0.1h-0.5v0.050l-1.85 1.35-0.9-0.9 2.4-2.4 4.35 4.3-0.95 0.9zM16 18.4h-0.050c-0.022-0.003-0.046-0.005-0.072-0.005-0.083 0-0.162 0.020-0.231 0.056l0.003-0.001-0.1 0.1-4.75 5.15-4.3-4.2 2.8-2.8c0.195-0.073 0.331-0.258 0.331-0.475 0-0.28-0.227-0.506-0.506-0.506-0.063 0-0.123 0.011-0.178 0.032l0.004-0.001h-2.25v-1.55h3.15c1.265 1.305 3.034 2.115 4.992 2.115 0.445 0 0.88-0.042 1.301-0.122l-0.043 0.007 0.15 0.050 2.4 1 0.15 0.75 0.2 0.85-3-0.4zM20 18.55l-0.3-1.5 1.5-1.1 0.35 0.5 0.55 0.75-2.1 1.3zM23.75 15.75l-0.75 0.75-1-1.2 0.85-0.65c0.15-0.1 0.35-0.15 0.5-0.15 0.373 0.018 0.668 0.324 0.668 0.699 0 0.223-0.104 0.421-0.266 0.55l-0.001 0.001z"></path>
            <path fill="#2e2f42" style="fill: var(--color1, #2e2f42)" d="M13.6 18.5l-2.15-2.1c-0.092-0.104-0.226-0.169-0.375-0.169s-0.283 0.065-0.375 0.169l-0 0.001-2.15 2.15c-0.104 0.092-0.169 0.226-0.169 0.375s0.065 0.283 0.169 0.375l0.001 0 2.15 2.15c0.092 0.104 0.226 0.169 0.375 0.169s0.283-0.065 0.375-0.169l0-0.001 2.15-2.15c0.104-0.092 0.169-0.226 0.169-0.375s-0.065-0.283-0.169-0.375l-0.001-0zM11.1 20.3l-1.4-1.4 1.4-1.35 1.35 1.35-1.35 1.4zM17.15 5.050l-0.25 1.050c0.1 0 1.75 0.5 1.75 2.15h1.050c0-2-1.65-3-2.5-3.2zM19.7 9.3h-1.050v1.1h1.050v-1.1z"></path>
        </symbol>
        <symbol id="icon-clock" viewBox="0 0 32 32">
            <path fill="#2e2f42" style="fill: var(--color1, #2e2f42)" d="M31.3 15.3c0-0.007 0-0.015 0-0.023 0-8.45-6.85-15.3-15.3-15.3s-15.3 6.85-15.3 15.3c0 6.844 4.494 12.638 10.692 14.594l0.108 0.029c0.15 0 0.25 0 0.35-0.1 0.15-0.050 0.25-0.2 0.3-0.35l3.85-12.25c1.049-0.001 1.899-0.851 1.899-1.9s-0.851-1.9-1.9-1.9c-0.309 0-0.601 0.074-0.859 0.205l0.011-0.005-5.1-5.15c-0.1-0.067-0.224-0.106-0.356-0.106-0.359 0-0.65 0.291-0.65 0.65 0 0.133 0.040 0.256 0.108 0.359l-0.002-0.002 5.1 5.15c-0.113 0.236-0.179 0.512-0.179 0.804 0 0.606 0.283 1.145 0.725 1.493l0.004 0.003-3.7 11.65c-5.375-2.037-9.128-7.142-9.128-13.125 0-7.732 6.268-14 14-14s14 6.268 14 14c0 5.657-3.356 10.531-8.185 12.739l-0.087 0.036-0.4-1.85c-0.070-0.29-0.326-0.502-0.633-0.502-0.159 0-0.305 0.057-0.418 0.152l0.001-0.001-3.85 3.4c-0.129 0.119-0.21 0.289-0.21 0.478 0 0.291 0.191 0.538 0.455 0.62l0.005 0.001 4.85 1.6c0.046 0.012 0.099 0.018 0.154 0.018 0.359 0 0.65-0.291 0.65-0.65 0-0.024-0.001-0.048-0.004-0.071l0 0.003-0.4-1.85c5.539-2.368 9.35-7.77 9.35-14.062 0-0.013-0-0.026-0-0.040v0.002zM16 14.65c0.359 0 0.65 0.291 0.65 0.65s-0.291 0.65-0.65 0.65v0c-0.359 0-0.65-0.291-0.65-0.65s0.291-0.65 0.65-0.65v0zM18.1 29.55l2.2-2 0.6 2.85-2.8-0.85z"></path>
            <path fill="#4d5ae5" style="fill: var(--color2, #4d5ae5)" d="M15.35 3.2v1.25c0 0.359 0.291 0.65 0.65 0.65s0.65-0.291 0.65-0.65v-1.25c0-0.359-0.291-0.65-0.65-0.65s-0.65 0.291-0.65 0.65v0zM3.9 14.65c-0.359 0-0.65 0.291-0.65 0.65s0.291 0.65 0.65 0.65v0h1.25c0.359 0 0.65-0.291 0.65-0.65s-0.291-0.65-0.65-0.65v0h-1.25zM28.1 15.95c0.359 0 0.65-0.291 0.65-0.65s-0.291-0.65-0.65-0.65v0h-1.25c-0.359 0-0.65 0.291-0.65 0.65s0.291 0.65 0.65 0.65v0h1.25z"></path>
        </symbol>
        <symbol id="icon-comp" viewBox="0 0 32 32">
            <path fill="#4d5ae5" style="fill: var(--color2, #4d5ae5)" d="M14.95 15h1v4.75h-1v-4.75zM19.2 17.1h1.050v2.65h-1.050v-2.65zM10.65 18.7h1.1v1.050h-1.1v-1.050zM7.5 18.15h1v1.6h-1v-1.6z"></path>
            <path fill="#2e2f42" style="fill: var(--color1, #2e2f42)" d="M1.6 28.3h25.6c0.85 0 1.6-0.75 1.6-1.6v-2.2c0-0.85-0.75-1.6-1.6-1.6h-0.5v-13.25l3-2.85c0.202 0.099 0.441 0.158 0.692 0.158 0.884 0 1.6-0.716 1.6-1.6s-0.716-1.6-1.6-1.6c-0.884 0-1.6 0.716-1.6 1.6 0 0.252 0.058 0.49 0.162 0.702l-0.004-0.009-2.3 2.15v-1.25c0-0.85-0.7-1.6-1.6-1.6h-21.3c-0 0-0.001 0-0.001 0-0.884 0-1.6 0.716-1.6 1.6 0 0.018 0 0.035 0.001 0.053l-0-0.003v16h-0.55c-0 0-0 0-0.001 0-0.866 0-1.571 0.688-1.599 1.547l-0 0.003v2.15c0 0.85 0.7 1.6 1.6 1.6zM30.4 4.8c0.304 0 0.55 0.246 0.55 0.55s-0.246 0.55-0.55 0.55v0c-0.29 0-0.525-0.235-0.525-0.525s0.235-0.525 0.525-0.525v0zM3.2 7c0-0.3 0.25-0.5 0.5-0.5h21.35c0.3 0 0.5 0.2 0.5 0.5v2.25l-1 1v-2.15c0-0.3-0.25-0.55-0.55-0.55h-19.2c-0.276 0-0.5 0.224-0.5 0.5v0 13.35c0 0.3 0.2 0.5 0.5 0.5h19.2c0.3 0 0.5-0.2 0.5-0.5v-9.7l1.1-1v12.25h-22.4v-15.95zM8 13.9c-0.004-0-0.008-0-0.012-0-0.884 0-1.6 0.716-1.6 1.6s0.716 1.6 1.6 1.6c0.432 0 0.825-0.172 1.113-0.45l-0 0 1.85 0.95c0.2 0.1 0.5 0 0.65-0.15l3.9-4.45 3.85 2.9c0.2 0.2 0.5 0.15 0.7 0l3.35-3.2v8.15h-18.050v-12.35h18.1v2.7l-3.75 3.55-3.9-2.95c-0.088-0.078-0.204-0.126-0.332-0.126-0.174 0-0.328 0.089-0.417 0.224l-0.001 0.002-4 4.5-1.5-0.75v-0.15c0-0.9-0.65-1.6-1.55-1.6zM8.5 15.5c0 0.276-0.224 0.5-0.5 0.5s-0.5-0.224-0.5-0.5v0c0-0.276 0.224-0.5 0.5-0.5s0.5 0.224 0.5 0.5v0zM11.75 24h5.25v0.55c0 0.3-0.25 0.5-0.5 0.5h-4.3c-0.276 0-0.5-0.224-0.5-0.5v0-0.5zM1 24.6c0-0.3 0.25-0.5 0.55-0.5h9.050v0.5c0 0.9 0.75 1.6 1.6 1.6h4.3c0.9 0 1.6-0.7 1.6-1.6v-0.5h9.1c0.3 0 0.5 0.2 0.5 0.5v2.15c0 0.3-0.2 0.5-0.5 0.5h-25.6c-0.276 0-0.5-0.224-0.5-0.5v0-2.25z"></path>
        </symbol>

        /*icons-body Social Media*/
        <symbol id="icon-instagram" viewBox="0 0 32 32">
            <path d="M31.969 9.408c-0.075-1.7-0.35-2.869-0.744-3.882-0.406-1.075-1.031-2.038-1.851-2.838-0.78-0.792-1.724-1.419-2.778-1.826l-0.054-0.018c-1.019-0.394-2.181-0.669-3.882-0.744-1.713-0.081-2.257-0.1-6.601-0.1s-4.888 0.019-6.595 0.094c-1.7 0.075-2.869 0.35-3.882 0.744-1.075 0.406-2.038 1.031-2.838 1.85-0.792 0.78-1.419 1.724-1.826 2.778l-0.018 0.054c-0.394 1.019-0.669 2.181-0.744 3.882-0.081 1.713-0.1 2.257-0.1 6.601s0.019 4.888 0.094 6.595c0.075 1.7 0.35 2.869 0.744 3.882 0.427 1.11 1.056 2.057 1.849 2.837l0.001 0.001c0.78 0.792 1.724 1.419 2.778 1.826l0.054 0.018c1.019 0.394 2.182 0.669 3.882 0.744 1.706 0.075 2.25 0.094 6.595 0.094s4.888-0.019 6.595-0.094c1.7-0.075 2.869-0.35 3.882-0.744 2.157-0.85 3.832-2.525 4.663-4.627l0.019-0.055c0.394-1.019 0.669-2.182 0.744-3.882 0.075-1.707 0.094-2.25 0.094-6.595s-0.006-4.888-0.081-6.595zM29.087 22.473c-0.069 1.563-0.331 2.407-0.55 2.969-0.551 1.4-1.639 2.487-3.002 3.026l-0.036 0.013c-0.563 0.219-1.413 0.481-2.969 0.55-1.688 0.075-2.194 0.094-6.464 0.094s-4.782-0.019-6.464-0.094c-1.563-0.069-2.407-0.331-2.969-0.55-0.694-0.256-1.325-0.663-1.838-1.194-0.516-0.504-0.923-1.117-1.183-1.803l-0.011-0.034c-0.219-0.563-0.481-1.413-0.55-2.969-0.075-1.688-0.094-2.194-0.094-6.464s0.019-4.782 0.094-6.464c0.069-1.563 0.331-2.407 0.55-2.969 0.256-0.694 0.663-1.325 1.2-1.838 0.504-0.517 1.117-0.923 1.804-1.182l0.034-0.011c0.563-0.219 1.413-0.481 2.969-0.55 1.688-0.075 2.194-0.094 6.464-0.094 4.276 0 4.782 0.019 6.464 0.094 1.563 0.069 2.407 0.331 2.969 0.55 0.694 0.256 1.325 0.662 1.838 1.194 0.531 0.519 0.938 1.144 1.194 1.838 0.219 0.563 0.481 1.413 0.55 2.969 0.075 1.688 0.094 2.194 0.094 6.464s-0.019 4.77-0.094 6.458z"></path>
            <path d="M16.059 7.783c-4.538 0-8.22 3.682-8.22 8.22s3.682 8.22 8.22 8.22c4.539 0 8.22-3.682 8.22-8.22s-3.682-8.22-8.22-8.22zM16.059 21.335c-2.944 0-5.332-2.388-5.332-5.332s2.388-5.332 5.332-5.332c2.945 0 5.332 2.388 5.332 5.332s-2.388 5.332-5.332 5.332zM26.524 7.458c0 1.060-0.859 1.919-1.919 1.919s-1.919-0.859-1.919-1.919c0-1.060 0.859-1.919 1.919-1.919s1.919 0.859 1.919 1.919z"></path>
        </symbol>
        <symbol id="icon-twitter" viewBox="0 0 32 32">
            <path d="M32 6.078c-1.19 0.522-2.458 0.868-3.78 1.036 1.36-0.812 2.398-2.088 2.886-3.626-1.268 0.756-2.668 1.29-4.16 1.588-1.204-1.282-2.92-2.076-4.792-2.076-3.632 0-6.556 2.948-6.556 6.562 0 0.52 0.044 1.020 0.152 1.496-5.454-0.266-10.28-2.88-13.522-6.862-0.566 0.982-0.898 2.106-0.898 3.316 0 2.272 1.17 4.286 2.914 5.452-1.054-0.020-2.088-0.326-2.964-0.808v0.072c0 3.188 2.274 5.836 5.256 6.446-0.534 0.146-1.116 0.216-1.72 0.216-0.42 0-0.844-0.024-1.242-0.112 0.85 2.598 3.262 4.508 6.13 4.57-2.232 1.746-5.066 2.798-8.134 2.798-0.538 0-1.054-0.024-1.57-0.090 2.906 1.874 6.35 2.944 10.064 2.944 12.072 0 18.672-10 18.672-18.668 0-0.29-0.010-0.57-0.024-0.848 1.302-0.924 2.396-2.078 3.288-3.406z"></path>
        </symbol>
        <symbol id="icon-facebook" viewBox="0 0 32 32">
            <path d="M21.329 5.313h2.921v-5.088c-0.504-0.069-2.237-0.225-4.256-0.225-4.212 0-7.097 2.649-7.097 7.519v4.481h-4.648v5.688h4.648v14.312h5.699v-14.311h4.46l0.708-5.688h-5.169v-3.919c0.001-1.644 0.444-2.769 2.735-2.769z"></path>
        </symbol>
        <symbol id="icon-linkedin" viewBox="0 0 32 32">
            <path d="M31.992 32v-0.001h0.008v-11.736c0-5.741-1.236-10.164-7.948-10.164-3.227 0-5.392 1.771-6.276 3.449h-0.093v-2.913h-6.364v21.364h6.627v-10.579c0-2.785 0.528-5.479 3.977-5.479 3.399 0 3.449 3.179 3.449 5.657v10.401h6.62zM0.528 10.636h6.635v21.364h-6.635v-21.364zM3.843 0c-2.121 0-3.843 1.721-3.843 3.843s1.721 3.879 3.843 3.879c2.121 0 3.843-1.757 3.843-3.879-0.001-2.121-1.723-3.843-3.843-3.843z"></path>
        </symbol>

        /*icons-body team container section*/
        <symbol id="icon-Logo1" viewBox="0 0 59 32">
            <path d="M21.714 4l4.004 3.815-7.433-0.004v18.51h19.429v-7.077l4 3.811v-19.054h-20zM37.538 18.796l-11.354-10.817h11.354v10.817zM34.013 23.613h-12.653v-12.449h0.894v11.606h11.759v0.843zM23.883 29.749l-0.472-0.97h-0.389l0.684 1.284v0.748h0.353v-0.748l0.684-1.284h-0.388l-0.472 0.97zM25.622 28.78h0.084l0.767 2.031h-0.368l-0.164-0.476h-0.786l-0.164 0.476h-0.367l0.765-2.031h0.234zM25.249 30.058h0.595l-0.298-0.862-0.297 0.862zM27.704 29.721c-0.006-0.007-0.020-0.026-0.035-0.044l-0.009-0.013c-0.052-0.069-0.093-0.135-0.121-0.2-0.027-0.059-0.043-0.128-0.043-0.201v-0c0-0.106 0.022-0.197 0.066-0.273s0.106-0.135 0.186-0.176c0.080-0.042 0.173-0.063 0.28-0.063 0.103 0 0.192 0.021 0.266 0.063 0.075 0.041 0.133 0.095 0.173 0.163 0.039 0.063 0.061 0.139 0.061 0.22 0 0.001 0 0.002 0 0.004v-0c0 0.064-0.012 0.123-0.035 0.176-0.025 0.056-0.057 0.104-0.096 0.145l0-0c-0.043 0.045-0.089 0.086-0.139 0.122l-0.003 0.002-0.141 0.103 0.402 0.475c0.011-0.022 0.024-0.049 0.034-0.077l0.002-0.006c0.034-0.089 0.052-0.188 0.052-0.297h0.29c0 0.099-0.010 0.192-0.029 0.28-0.019 0.093-0.051 0.175-0.093 0.25l0.002-0.004c-0.019 0.034-0.038 0.064-0.059 0.091l0.001-0.002 0.298 0.351h-0.389l-0.118-0.139c-0.060 0.046-0.129 0.084-0.203 0.112l-0.005 0.002c-0.099 0.035-0.204 0.053-0.315 0.053-0.135 0-0.252-0.025-0.35-0.074s-0.175-0.117-0.229-0.204c-0.053-0.087-0.080-0.186-0.080-0.297 0-0.083 0.017-0.155 0.052-0.218s0.081-0.122 0.141-0.176c0.056-0.051 0.118-0.1 0.182-0.145l0.006-0.004zM27.871 29.925l-0.042 0.031c-0.049 0.040-0.086 0.079-0.11 0.116s-0.039 0.070-0.046 0.1c-0.007 0.024-0.011 0.052-0.011 0.081v0c0 0.059 0.013 0.113 0.038 0.162 0.027 0.049 0.065 0.088 0.112 0.115l0.001 0.001c0.050 0.028 0.111 0.042 0.183 0.042 0.082-0 0.159-0.019 0.228-0.053l-0.003 0.001c0.036-0.018 0.071-0.039 0.103-0.064l-0.452-0.532zM27.951 29.554l0.125-0.084c0.059-0.039 0.1-0.077 0.126-0.114s0.038-0.086 0.038-0.142c0-0.048-0.019-0.093-0.056-0.134s-0.090-0.061-0.158-0.061c-0.047 0-0.087 0.011-0.12 0.034-0.032 0.021-0.058 0.051-0.073 0.085l-0.001 0.001c-0.016 0.035-0.024 0.075-0.024 0.119 0 0.042 0.011 0.085 0.032 0.13s0.051 0.090 0.088 0.138c0.008 0.010 0.015 0.020 0.023 0.029zM31.505 30.15h-0.349c-0.010 0.088-0.032 0.163-0.064 0.225s-0.079 0.106-0.141 0.138c-0.061 0.032-0.142 0.047-0.241 0.047-0.082 0-0.152-0.016-0.211-0.049s-0.107-0.079-0.145-0.138c-0.037-0.059-0.065-0.131-0.084-0.213s-0.026-0.177-0.026-0.279v-0.172c0-0.108 0.010-0.204 0.029-0.287s0.051-0.156 0.091-0.213c0.040-0.058 0.090-0.101 0.149-0.131s0.129-0.045 0.209-0.045c0.098 0 0.177 0.017 0.237 0.050 0.060 0.032 0.107 0.081 0.136 0.14l0.001 0.002c0.032 0.062 0.052 0.137 0.061 0.225h0.349c-0.014-0.136-0.052-0.256-0.114-0.361s-0.148-0.187-0.259-0.247c-0.112-0.060-0.248-0.089-0.41-0.089-0.127 0-0.242 0.022-0.345 0.067-0.103 0.046-0.191 0.112-0.26 0.193l-0.001 0.001c-0.073 0.084-0.128 0.185-0.167 0.303s-0.057 0.25-0.057 0.396v0.169c0 0.146 0.019 0.278 0.056 0.396s0.093 0.219 0.165 0.303c0.072 0.083 0.158 0.147 0.258 0.192s0.213 0.067 0.339 0.067c0.164 0 0.303-0.030 0.417-0.089s0.203-0.141 0.266-0.244c0.063-0.104 0.1-0.223 0.112-0.356zM33.443 29.851v-0.112c0-0.153-0.020-0.291-0.061-0.412s-0.097-0.226-0.172-0.311c-0.072-0.084-0.161-0.15-0.262-0.195l-0.005-0.002c-0.103-0.046-0.218-0.068-0.343-0.068s-0.239 0.023-0.342 0.068c-0.105 0.047-0.194 0.113-0.266 0.196l-0.001 0.001c-0.074 0.086-0.132 0.189-0.173 0.311s-0.061 0.258-0.061 0.412v0.112c0 0.154 0.020 0.291 0.061 0.413s0.1 0.226 0.176 0.311c0.075 0.086 0.164 0.151 0.266 0.197s0.217 0.067 0.342 0.067c0.126 0 0.24-0.022 0.343-0.067 0.105-0.047 0.194-0.113 0.264-0.196l0.001-0.001c0.074-0.086 0.132-0.189 0.172-0.311s0.060-0.259 0.060-0.413zM33.092 29.737v0.114c0 0.113-0.011 0.214-0.033 0.301s-0.053 0.161-0.095 0.222c-0.042 0.059-0.093 0.105-0.153 0.135s-0.13 0.045-0.208 0.045c-0.077 0-0.146-0.015-0.206-0.045s-0.113-0.076-0.156-0.135c-0.043-0.060-0.075-0.134-0.098-0.222s-0.033-0.188-0.033-0.301v-0.114c0-0.113 0.011-0.213 0.033-0.3s0.054-0.16 0.096-0.219c0.043-0.059 0.094-0.104 0.155-0.134s0.129-0.046 0.206-0.046 0.147 0.015 0.208 0.046c0.061 0.030 0.113 0.074 0.155 0.134s0.075 0.132 0.096 0.219c0.022 0.087 0.033 0.186 0.033 0.3z"></path>
        </symbol>
        <symbol id="icon-Logo2" viewBox="0 0 59 32">
            <path d="M28.636 3.391h-0.078c-0.12-0.007-0.24-0.010-0.36-0.013h-0.26c-0.227 0-0.458 0.006-0.688 0.017-0.008-0.001-0.017-0.001-0.026-0.001s-0.018 0-0.027 0.001l0.001-0c-2.206 0.129-4.254 0.68-6.106 1.575l0.096-0.042-0.247 0.119v12.652l0.578-0.196c0.507-0.174 1.048-0.331 1.607-0.477 1.382-0.37 2.973-0.593 4.612-0.614l0.013-0v1.662c-0.219 0.002-0.431 0.008-0.643 0.019l0.034-0.001h-0.048c-1.299 0.073-2.516 0.268-3.688 0.575l0.129-0.029c-1.61 0.409-3.021 0.975-4.333 1.699l0.093-0.047v-16.227c1.28-0.761 2.762-1.382 4.33-1.784l0.118-0.026c1.256-0.338 2.7-0.535 4.189-0.54h0.248c0.292 0.007 0.577 0.020 0.844 0.041 0.77 0.055 1.483 0.173 2.172 0.351l-0.084-0.018v1.636c-0.583-0.143-1.274-0.251-1.982-0.303l-0.042-0.002-0.041-0.003c-0.141-0.012-0.282-0.024-0.414-0.024zM31.516 5.064c0.363 0.028 0.739 0.041 1.119 0.041 1.569-0.006 3.086-0.212 4.533-0.593l-0.125 0.028c1.61-0.411 3.021-0.977 4.332-1.701l-0.094 0.047v15.938c-1.281 0.761-2.762 1.381-4.331 1.783l-0.118 0.026c-1.256 0.337-2.7 0.533-4.188 0.539h-0.004c-0.031 0-0.067 0-0.103 0-1.093 0-2.153-0.137-3.166-0.394l0.089 0.019v-16.041c0.246 0.057 0.499 0.109 0.756 0.153 0.422 0.071 0.867 0.123 1.301 0.155zM39.627 5.187l-0.578 0.195c-0.349 0.128-0.886 0.293-1.429 0.44l-0.178 0.041c-1.44 0.385-3.094 0.61-4.8 0.616h-0.004c-0.377 0-0.724-0.010-1.060-0.032l-0.461-0.030v13.015l0.396 0.035c0.367 0.032 0.746 0.048 1.128 0.048 1.347-0.006 2.649-0.184 3.89-0.514l-0.107 0.024c1.134-0.288 2.118-0.651 3.051-1.104l-0.094 0.041 0.247-0.119v-12.656z"></path>
            <path d="M20.421 25.836c-0.081-0.084-0.179-0.151-0.288-0.197l-0.006-0.002c-0.094-0.039-0.204-0.062-0.318-0.062-0.011 0-0.022 0-0.032 0.001l0.002-0c-0.004-0-0.008-0-0.013-0-0.129 0-0.253 0.026-0.365 0.072l0.006-0.002c-0.113 0.046-0.209 0.11-0.289 0.19v0c-0.079 0.081-0.143 0.177-0.184 0.285l-0.002 0.006c-0.042 0.103-0.067 0.223-0.067 0.348 0 0.004 0 0.008 0 0.011v-0.001 2.168c-0.005 0.153 0.024 0.305 0.085 0.445 0.053 0.114 0.127 0.211 0.216 0.29l0.001 0.001c0.087 0.073 0.188 0.126 0.298 0.154 0.097 0.028 0.208 0.045 0.324 0.045h0c0.002 0 0.005 0 0.008 0 0.124 0 0.242-0.028 0.347-0.078l-0.005 0.002c0.113-0.050 0.209-0.118 0.289-0.2l0-0c0.078-0.082 0.142-0.178 0.187-0.284l0.002-0.006c0.044-0.101 0.069-0.218 0.069-0.342 0-0.001 0-0.003 0-0.004v0-0.243h-0.567v0.193c0 0.004 0 0.008 0 0.013 0 0.065-0.012 0.127-0.035 0.184l0.001-0.003c-0.019 0.048-0.047 0.088-0.082 0.122l-0 0c-0.033 0.027-0.073 0.049-0.116 0.062l-0.002 0.001c-0.035 0.012-0.076 0.020-0.118 0.020h-0c-0.010 0.001-0.022 0.002-0.033 0.002-0.042 0-0.081-0.009-0.117-0.025l0.002 0.001c-0.048-0.021-0.087-0.053-0.117-0.093l-0.001-0.001c-0.047-0.076-0.076-0.169-0.076-0.268 0-0.008 0-0.016 0.001-0.024l-0 0.001v-2.021c-0-0.006-0-0.014-0-0.022 0-0.11 0.026-0.214 0.072-0.306l-0.002 0.004c0.030-0.046 0.070-0.082 0.118-0.105l0.002-0.001c0.036-0.017 0.078-0.027 0.123-0.027 0.012 0 0.024 0.001 0.036 0.002l-0.001-0c0.003-0 0.007-0 0.011-0 0.099 0 0.187 0.048 0.242 0.121l0.001 0.001c0.059 0.076 0.094 0.174 0.094 0.279 0 0.004-0 0.008-0 0.012v-0.001 0.187h0.561v-0.221c0-0.003 0-0.006 0-0.009 0-0.133-0.026-0.261-0.072-0.377l0.002 0.007c-0.044-0.119-0.109-0.22-0.19-0.306l0 0zM23.788 25.811c-0.173-0.147-0.398-0.237-0.644-0.238h-0c-0.122 0.001-0.238 0.023-0.345 0.063l0.007-0.002c-0.116 0.042-0.215 0.102-0.3 0.178l0.001-0.001c-0.092 0.083-0.166 0.184-0.218 0.298l-0.002 0.006c-0.052 0.118-0.083 0.256-0.083 0.4 0 0.007 0 0.014 0 0.020l-0-0.001v2.079c-0.004 0.146 0.024 0.292 0.082 0.426 0.051 0.112 0.126 0.211 0.22 0.291 0.087 0.080 0.188 0.143 0.299 0.183 0.108 0.040 0.223 0.061 0.338 0.061 0.122-0 0.238-0.023 0.345-0.063l-0.007 0.002c0.118-0.044 0.22-0.106 0.307-0.184l-0.001 0.001c0.089-0.080 0.161-0.177 0.212-0.285l0.002-0.005c0.052-0.117 0.083-0.255 0.083-0.399 0-0.009-0-0.019-0-0.028l0 0.001v-2.079c0-0.006 0-0.013 0-0.020 0-0.145-0.030-0.282-0.085-0.407l0.003 0.006c-0.053-0.119-0.125-0.22-0.214-0.303l-0-0zM23.523 28.614c0.001 0.010 0.001 0.021 0.001 0.032 0 0.105-0.044 0.201-0.114 0.269l-0 0c-0.072 0.060-0.165 0.097-0.267 0.097v0c-0.102-0-0.195-0.037-0.267-0.098l0.001 0c-0.070-0.068-0.114-0.163-0.114-0.269 0-0.011 0-0.023 0.002-0.034l-0 0.001v-2.079c-0.001-0.010-0.001-0.021-0.001-0.032 0-0.105 0.044-0.201 0.114-0.268l0-0c0.072-0.060 0.165-0.097 0.267-0.097v0c0.102 0 0.195 0.037 0.267 0.098l-0.001-0c0.070 0.068 0.114 0.163 0.114 0.268 0 0.011-0 0.023-0.002 0.034l0-0.001v2.079zM28.21 29.543v-3.936h-0.545l-0.716 2.084h-0.010l-0.721-2.084h-0.539v3.936h0.562v-2.395h0.010l0.551 1.693h0.28l0.555-1.693h0.010v2.395h0.562zM31.405 25.882c-0.085-0.095-0.192-0.169-0.313-0.213l-0.005-0.002c-0.115-0.039-0.248-0.061-0.386-0.061-0.008 0-0.015 0-0.023 0l0.001-0h-0.835v3.936h0.561v-1.537h0.289c0.175 0.008 0.349-0.029 0.506-0.108 0.129-0.072 0.233-0.174 0.306-0.297l0.002-0.004c0.062-0.098 0.107-0.214 0.128-0.337l0.001-0.006c0.019-0.124 0.031-0.267 0.031-0.413 0-0.012-0-0.025-0-0.037l0 0.002c0.001-0.019 0.001-0.042 0.001-0.065 0-0.176-0.020-0.348-0.059-0.512l0.003 0.015c-0.040-0.142-0.111-0.264-0.207-0.362l0 0zM31.116 27.082c-0.003 0.075-0.022 0.145-0.053 0.208l0.001-0.003c-0.032 0.061-0.082 0.108-0.143 0.137l-0.002 0.001c-0.069 0.032-0.15 0.050-0.235 0.050-0.010 0-0.021-0-0.031-0.001l0.001 0h-0.256v-1.338h0.289c0.008-0 0.017-0.001 0.026-0.001 0.082 0 0.16 0.018 0.23 0.051l-0.003-0.001c0.058 0.034 0.103 0.084 0.131 0.143l0.001 0.002c0.031 0.069 0.047 0.144 0.049 0.219v0.262c0 0.092 0.006 0.186 0 0.27h-0.006zM34.062 25.606h-0.46l-0.867 3.936h0.561l0.165-0.846h0.765l0.165 0.846h0.561l-0.889-3.936zM33.544 28.161l0.276-1.427h0.010l0.275 1.427h-0.561zM37.686 27.978h-0.010l-0.847-2.371h-0.539v3.936h0.561v-2.367h0.012l0.857 2.367h0.528v-3.936h-0.561v2.371zM41.113 25.606l-0.451 1.565h-0.012l-0.451-1.565h-0.594l0.77 2.273v1.664h0.561v-1.664l0.77-2.273h-0.594zM18.857 30.654h0.27v0.759h0.184v-0.759h0.269v-0.155h-0.723v0.155zM21.13 30.498l-0.354 0.914h0.195l0.075-0.208h0.364l0.078 0.208h0.2l-0.363-0.914h-0.195zM21.101 31.051l0.124-0.339 0.124 0.339h-0.249zM23.376 31.076h0.211v0.118c-0.059 0.048-0.134 0.076-0.217 0.077h-0c-0.004 0-0.008 0-0.013 0-0.073 0-0.138-0.034-0.181-0.087l-0-0c-0.043-0.061-0.068-0.137-0.068-0.218 0-0.007 0-0.014 0.001-0.021l-0 0.001c0-0.203 0.088-0.305 0.263-0.305 0.006-0.001 0.012-0.001 0.019-0.001 0.042 0 0.080 0.013 0.112 0.036l-0.001-0c0.037 0.026 0.065 0.065 0.076 0.11l0 0.001 0.181-0.035c-0.039-0.179-0.168-0.269-0.387-0.269-0.004-0-0.008-0-0.012-0-0.118 0-0.226 0.045-0.308 0.118l0-0c-0.082 0.081-0.133 0.194-0.133 0.318 0 0.012 0 0.023 0.001 0.035l-0-0.002c-0 0.006-0 0.014-0 0.022 0 0.123 0.044 0.235 0.118 0.322l-0.001-0.001c0.080 0.083 0.193 0.135 0.318 0.135 0.010 0 0.021-0 0.031-0.001l-0.001 0c0.005 0 0.010 0 0.015 0 0.144 0 0.275-0.055 0.373-0.146l-0 0v-0.36h-0.396v0.154zM25.67 30.498h-0.185v0.914h0.64v-0.155h-0.455v-0.759zM27.61 30.498h-0.185v0.914h0.185v-0.914zM29.507 31.109l-0.374-0.61h-0.179v0.914h0.172v-0.597l0.367 0.597h0.184v-0.914h-0.169v0.61zM31.221 31.010h0.455v-0.155h-0.455v-0.201h0.49v-0.155h-0.675v0.914h0.694v-0.155h-0.509v-0.247zM35.378 30.859h-0.36v-0.36h-0.184v0.914h0.184v-0.4h0.36v0.4h0.184v-0.914h-0.184v0.36zM37.103 31.010h0.457v-0.155h-0.457v-0.201h0.492v-0.155h-0.675v0.914h0.692v-0.155h-0.509v-0.247zM39.442 31.010c0.159-0.025 0.24-0.109 0.24-0.254 0.001-0.008 0.002-0.017 0.002-0.026 0-0.073-0.036-0.137-0.091-0.177l-0.001-0c-0.068-0.035-0.147-0.055-0.232-0.055-0.013 0-0.025 0-0.037 0.001l0.002-0h-0.387v0.914h0.184v-0.382h0.036c0.005-0 0.010-0 0.015-0 0.036 0 0.070 0.008 0.101 0.021l-0.002-0.001c0.027 0.017 0.049 0.039 0.065 0.066l0.001 0.001 0.2 0.291h0.22l-0.111-0.179c-0.050-0.089-0.118-0.163-0.2-0.218l-0.002-0.001zM39.257 30.884h-0.136v-0.23h0.145c0.012-0.001 0.025-0.002 0.039-0.002 0.053 0 0.104 0.009 0.151 0.024l-0.003-0.001c0.025 0.022 0.040 0.054 0.040 0.090 0 0.039-0.019 0.075-0.049 0.096l-0 0c-0.046 0.015-0.098 0.023-0.153 0.023-0.012 0-0.024-0-0.035-0.001l0.002 0zM41.206 31.010h0.455v-0.155h-0.455v-0.201h0.492v-0.155h-0.676v0.914h0.694v-0.155h-0.509v-0.247z"></path>
        </symbol>
        <symbol id="icon-Logo3" viewBox="0 0 59 32">
            <path d="M21.034 28.128c0.010 0 0.019 0.002 0.027 0.005l-0.001-0c0.009 0.003 0.016 0.008 0.022 0.014l-0-0 0.126 0.119c-0.098 0.096-0.219 0.173-0.355 0.225-0.14 0.051-0.302 0.081-0.47 0.081-0.012 0-0.023-0-0.034-0l0.002 0c-0.008 0-0.017 0-0.026 0-0.16 0-0.314-0.028-0.457-0.079l0.009 0.003c-0.135-0.048-0.257-0.121-0.357-0.213-0.102-0.095-0.18-0.207-0.23-0.329s-0.080-0.262-0.080-0.409c0-0.005 0-0.009 0-0.014v0.001c-0-0.004-0-0.009-0-0.014 0-0.148 0.032-0.289 0.089-0.416l-0.003 0.006c0.055-0.122 0.138-0.234 0.244-0.329 0.108-0.093 0.237-0.166 0.379-0.214 0.155-0.051 0.321-0.077 0.487-0.076 0.009-0 0.019-0 0.029-0 0.152 0 0.297 0.025 0.433 0.072l-0.009-0.003c0.125 0.046 0.24 0.111 0.339 0.19l-0.106 0.127c-0.008 0.009-0.016 0.017-0.026 0.023l-0 0c-0.010 0.006-0.023 0.010-0.036 0.010-0.002 0-0.004-0-0.006-0l0 0c-0.017-0.001-0.033-0.006-0.046-0.014l0 0-0.057-0.034-0.079-0.043c-0.028-0.014-0.063-0.028-0.099-0.040l-0.006-0.002c-0.039-0.013-0.087-0.024-0.137-0.033l-0.007-0.001c-0.052-0.009-0.113-0.014-0.174-0.014-0.005 0-0.009 0-0.014 0h0.001c-0.004-0-0.008-0-0.012-0-0.121 0-0.237 0.021-0.345 0.059l0.007-0.002c-0.104 0.036-0.197 0.090-0.274 0.159-0.079 0.073-0.139 0.16-0.178 0.253-0.041 0.096-0.065 0.207-0.065 0.323 0 0.004 0 0.008 0 0.012v-0.001c-0.002 0.116 0.020 0.23 0.065 0.34 0.038 0.093 0.098 0.179 0.175 0.252 0.072 0.068 0.162 0.122 0.262 0.156 0.103 0.036 0.213 0.055 0.325 0.054 0.005 0 0.011 0 0.018 0 0.062 0 0.122-0.004 0.182-0.012l-0.007 0.001c0.104-0.011 0.204-0.042 0.292-0.090 0.047-0.027 0.088-0.055 0.127-0.085l-0.002 0.002c0.016-0.013 0.037-0.021 0.060-0.022h0zM24.678 27.532c0 0.004 0 0.008 0 0.012 0 0.147-0.031 0.287-0.088 0.413l0.003-0.006c-0.051 0.122-0.132 0.233-0.238 0.326s-0.232 0.166-0.373 0.214c-0.143 0.048-0.308 0.075-0.48 0.075s-0.336-0.028-0.491-0.079l0.011 0.003c-0.14-0.049-0.266-0.122-0.371-0.214-0.105-0.095-0.187-0.206-0.24-0.329-0.114-0.271-0.114-0.568 0-0.84 0.054-0.122 0.135-0.235 0.24-0.33 0.106-0.090 0.232-0.16 0.371-0.206 0.143-0.049 0.308-0.077 0.48-0.077s0.336 0.028 0.49 0.080l-0.011-0.003c0.14 0.049 0.267 0.122 0.372 0.214 0.104 0.094 0.185 0.204 0.238 0.325 0.058 0.135 0.087 0.278 0.085 0.422zM24.347 27.532c0-0.005 0-0.011 0-0.018 0-0.115-0.022-0.225-0.062-0.325l0.002 0.006c-0.035-0.093-0.093-0.179-0.169-0.252-0.074-0.069-0.165-0.124-0.267-0.159-0.104-0.035-0.224-0.055-0.349-0.055s-0.244 0.020-0.357 0.058l0.008-0.002c-0.102 0.035-0.193 0.090-0.267 0.159-0.077 0.073-0.135 0.159-0.17 0.252-0.038 0.1-0.060 0.216-0.060 0.337s0.022 0.237 0.062 0.344l-0.002-0.007c0.036 0.093 0.094 0.179 0.17 0.252 0.074 0.069 0.165 0.123 0.267 0.158 0.104 0.034 0.224 0.054 0.349 0.054s0.244-0.020 0.357-0.056l-0.008 0.002c0.102-0.035 0.192-0.089 0.267-0.158 0.076-0.073 0.133-0.159 0.169-0.252 0.042-0.109 0.063-0.223 0.060-0.337zM27.164 27.885l0.033 0.076c0.013-0.027 0.024-0.051 0.036-0.076 0.014-0.029 0.028-0.054 0.043-0.077l-0.002 0.003 0.806-1.252c0.016-0.022 0.030-0.035 0.046-0.039s0.036-0.007 0.055-0.007c0.004 0 0.008 0 0.011 0l-0.001-0h0.238v2.036h-0.282v-1.561c-0.001-0.010-0.001-0.023-0.001-0.035s0-0.025 0.001-0.037l-0 0.002-0.811 1.269c-0.011 0.020-0.027 0.036-0.047 0.046l-0.001 0c-0.020 0.011-0.043 0.017-0.068 0.017-0 0-0.001 0-0.001 0h-0.046c-0.001 0-0.001 0-0.002 0-0.025 0-0.048-0.006-0.068-0.017l0.001 0c-0.020-0.011-0.036-0.027-0.047-0.046l-0-0.001-0.834-1.277v1.635h-0.273v-2.032h0.238c0.003-0 0.007-0 0.011-0 0.020 0 0.039 0.003 0.057 0.007l-0.002-0c0.019 0.008 0.034 0.021 0.044 0.039l0 0 0.823 1.253c0.015 0.021 0.029 0.045 0.040 0.070l0.001 0.003zM30.197 27.784v0.763h-0.316v-2.034h0.704c0.008-0 0.017-0 0.026-0 0.13 0 0.257 0.016 0.377 0.047l-0.011-0.002c0.102 0.025 0.197 0.068 0.278 0.127 0.070 0.055 0.124 0.123 0.158 0.199 0.037 0.083 0.055 0.171 0.054 0.26 0 0.002 0 0.005 0 0.008 0 0.092-0.022 0.179-0.060 0.256l0.002-0.003c-0.038 0.078-0.096 0.148-0.17 0.203-0.081 0.061-0.176 0.107-0.279 0.135-0.107 0.030-0.229 0.047-0.355 0.047-0.009 0-0.017-0-0.026-0l-0.38-0.005zM30.197 27.566h0.382c0.003 0 0.007 0 0.010 0 0.083 0 0.164-0.011 0.24-0.033l-0.006 0.002c0.068-0.019 0.126-0.049 0.178-0.089l-0.001 0.001c0.046-0.035 0.082-0.081 0.106-0.133l0.001-0.002c0.024-0.049 0.038-0.106 0.038-0.166 0-0.002 0-0.003-0-0.005v0c0-0.006 0.001-0.014 0.001-0.021 0-0.052-0.012-0.102-0.033-0.146l0.001 0.002c-0.027-0.055-0.064-0.102-0.11-0.138l-0.001-0.001c-0.12-0.080-0.272-0.119-0.424-0.109h-0.382v0.838zM34.437 28.549h-0.249c-0.001 0-0.003 0-0.005 0-0.024 0-0.046-0.007-0.065-0.019l0 0c-0.017-0.012-0.031-0.028-0.041-0.046l-0-0.001-0.215-0.492h-1.077l-0.222 0.492c-0.009 0.019-0.022 0.034-0.039 0.046l-0 0c-0.019 0.013-0.042 0.020-0.067 0.020-0.001 0-0.003-0-0.004-0h-0.249l0.946-2.036h0.328l0.959 2.036zM32.875 27.793h0.89l-0.375-0.829c-0.025-0.053-0.049-0.116-0.069-0.182l-0.002-0.009-0.036 0.106c-0.012 0.036-0.024 0.064-0.037 0.092l0.002-0.006-0.372 0.828zM35.8 26.522c0.019 0.009 0.035 0.021 0.047 0.036l0 0 1.38 1.535v-1.581h0.282v2.036h-0.158c-0.001 0-0.003 0-0.004 0-0.022 0-0.043-0.004-0.061-0.013l0.001 0c-0.020-0.010-0.036-0.022-0.050-0.038l-0-0-1.379-1.534c0.001 0.010 0.001 0.023 0.001 0.035s-0 0.025-0.001 0.037l0-0.002v1.514h-0.282v-2.036h0.167c0.001-0 0.002-0 0.004-0 0.019 0 0.037 0.003 0.054 0.010l-0.001-0zM39.834 27.739v0.809h-0.316v-0.809l-0.872-1.226h0.282c0.002-0 0.004-0 0.006-0 0.023 0 0.044 0.007 0.062 0.018l-0-0c0.017 0.013 0.031 0.028 0.042 0.045l0 0.001 0.546 0.791c0.017 0.026 0.036 0.056 0.054 0.088l0.003 0.006c0.016 0.030 0.028 0.058 0.039 0.086l0.041-0.088c0.017-0.036 0.035-0.066 0.055-0.095l-0.002 0.002 0.538-0.796c0.012-0.016 0.025-0.031 0.041-0.043l0-0c0.017-0.013 0.039-0.020 0.063-0.020 0.002 0 0.004 0 0.005 0h0.285l-0.874 1.232zM27.008 23.095c0.137 0.015 0.276 0.027 0.416 0.038 2.128-0.813 3.929-2.145 5.176-3.828s1.887-3.643 1.838-5.634l-2.346-2.004c0.477 2.12 0.254 4.313-0.644 6.331s-2.436 3.783-4.441 5.098z"></path>
            <path d="M26.17 23.002l0.063 0.011c2.143-1.31 3.776-3.138 4.69-5.25s1.064-4.408 0.433-6.594l-3.341-2.854c1.351 2.346 1.895 4.972 1.568 7.572s-1.511 5.067-3.414 7.115zM37.5 16.024c-0.568 2.188-1.946 4.162-3.931 5.628-0.58 0.43-1.205 0.814-1.868 1.145 1.616-0.406 3.102-1.123 4.342-2.097s2.202-2.178 2.812-3.52l-1.355-1.156z"></path>
            <path d="M36.968 15.702l-1.929-1.648c-0.037 1.879-0.662 3.716-1.811 5.318s-2.779 2.914-4.721 3.796h0.009c0.456-0 0.907-0.024 1.351-0.071l-0.056 0.005c1.815-0.633 3.418-1.64 4.667-2.931s2.104-2.826 2.489-4.469zM26.449 7.112l-2.301-1.969c-2.057 0.679-3.827 1.873-5.077 3.426s-1.922 3.392-1.928 5.276c0.008 2.082 0.828 4.103 2.331 5.742s3.603 2.803 5.967 3.308c2.111-2.197 3.346-4.912 3.528-7.75s-0.701-5.652-2.52-8.032zM42.286 15.399c-0.008-2.47-1.161-4.838-3.205-6.585s-4.815-2.731-7.707-2.739c-1.336-0.001-2.661 0.21-3.907 0.621l14.090 12.039c0.482-1.064 0.73-2.196 0.729-3.337z"></path>
        </symbol>
        <symbol id="icon-Logo4" viewBox="0 0 59 32">
            <path d="M13.759 12.296h-0.002c-1.363 0-2.468 0.996-2.468 2.225v0.002c0 1.229 1.105 2.225 2.468 2.225h0.002c1.363 0 2.468-0.996 2.468-2.225v-0.002c0-1.229-1.105-2.225-2.468-2.225zM31.978 11.585c-0.004-1.707-0.758-3.343-2.096-4.551s-3.153-1.887-5.047-1.891c-1.894 0.003-3.709 0.683-5.049 1.89s-2.094 2.844-2.098 4.552v9.414s14.288-1.435 14.289-9.412v-0.001zM6.286 24.088c0.003 1.188 0.528 2.326 1.46 3.166s2.194 1.314 3.511 1.317c1.317-0.003 2.579-0.477 3.511-1.317s1.456-1.978 1.46-3.165v-6.55s-9.942 0.999-9.942 6.549zM11.257 25.262c-0.258 0-0.509-0.069-0.723-0.198s-0.381-0.312-0.479-0.527-0.124-0.45-0.074-0.678c0.050-0.228 0.174-0.437 0.356-0.601s0.414-0.276 0.666-0.321c0.076-0.014 0.164-0.023 0.254-0.023 0.179 0 0.35 0.033 0.508 0.093l-0.010-0.003c0.238 0.089 0.441 0.239 0.584 0.432s0.219 0.42 0.219 0.652c0 0.001 0 0.002 0 0.003 0 0.162-0.036 0.316-0.1 0.454l0.003-0.007c-0.065 0.143-0.161 0.273-0.282 0.382s-0.265 0.196-0.423 0.256c-0.148 0.057-0.319 0.090-0.498 0.090-0 0-0.001 0-0.001 0h0v-0.004zM20.348 23.151v2.438h-0.502v-2.438h0.502zM21.319 24.193v0.392h-1.108v-0.392h1.108zM21.436 23.151v0.393h-1.225v-0.393h1.225zM23.73 24.313v0.116c0 0.185-0.025 0.352-0.075 0.499s-0.121 0.273-0.213 0.377c-0.089 0.1-0.199 0.18-0.322 0.234l-0.006 0.002c-0.126 0.055-0.266 0.082-0.42 0.082-0.153 0-0.293-0.027-0.42-0.082-0.129-0.057-0.239-0.136-0.327-0.235l-0.001-0.001c-0.093-0.104-0.165-0.229-0.216-0.377-0.050-0.147-0.075-0.314-0.075-0.499v-0.116c0-0.186 0.025-0.353 0.075-0.499 0.050-0.147 0.121-0.273 0.213-0.377 0.089-0.1 0.199-0.181 0.322-0.235l0.006-0.002c0.127-0.055 0.267-0.082 0.42-0.082 0.154 0 0.294 0.027 0.42 0.082 0.127 0.055 0.237 0.134 0.328 0.238 0.093 0.104 0.164 0.229 0.214 0.377 0.051 0.146 0.077 0.312 0.077 0.499zM23.222 24.429v-0.119c0-0.13-0.012-0.243-0.035-0.342s-0.058-0.181-0.104-0.248-0.102-0.117-0.167-0.151c-0.066-0.035-0.141-0.052-0.226-0.052s-0.16 0.017-0.226 0.052c-0.065 0.034-0.12 0.084-0.166 0.151-0.045 0.067-0.079 0.15-0.102 0.248s-0.035 0.212-0.035 0.342v0.119c0 0.128 0.012 0.242 0.035 0.341 0.023 0.098 0.058 0.181 0.104 0.249 0.046 0.067 0.102 0.118 0.167 0.152s0.141 0.052 0.226 0.052c0.085 0 0.16-0.017 0.226-0.052s0.121-0.085 0.166-0.152c0.045-0.068 0.079-0.151 0.102-0.249 0.023-0.099 0.035-0.213 0.035-0.341zM25.36 24.951c0-0.044-0.007-0.083-0.020-0.117-0.012-0.036-0.036-0.068-0.070-0.097-0.035-0.030-0.083-0.060-0.146-0.089s-0.143-0.059-0.243-0.090c-0.128-0.041-0.233-0.082-0.334-0.128l0.019 0.008c-0.098-0.045-0.185-0.096-0.261-0.156-0.075-0.060-0.134-0.13-0.177-0.209-0.042-0.079-0.064-0.171-0.064-0.276 0-0.102 0.022-0.194 0.067-0.276 0.045-0.084 0.107-0.155 0.188-0.214 0.080-0.060 0.175-0.107 0.285-0.139 0.11-0.032 0.232-0.049 0.363-0.049 0.18 0 0.337 0.032 0.47 0.097s0.238 0.154 0.311 0.266c0.075 0.113 0.112 0.242 0.112 0.387h-0.499c0-0.071-0.015-0.134-0.045-0.188-0.029-0.055-0.074-0.098-0.134-0.129-0.059-0.031-0.134-0.047-0.224-0.047-0.087 0-0.16 0.013-0.218 0.040-0.058 0.026-0.102 0.061-0.131 0.105-0.029 0.044-0.044 0.093-0.044 0.147 0 0.041 0.010 0.079 0.030 0.112 0.021 0.034 0.052 0.065 0.094 0.094s0.092 0.056 0.152 0.082c0.060 0.026 0.13 0.051 0.209 0.075 0.133 0.040 0.249 0.085 0.35 0.136 0.102 0.050 0.186 0.107 0.254 0.169s0.119 0.133 0.154 0.213c0.035 0.079 0.052 0.169 0.052 0.27 0 0.106-0.021 0.201-0.062 0.285s-0.101 0.155-0.179 0.213c-0.078 0.058-0.171 0.102-0.28 0.132s-0.229 0.045-0.363 0.045c-0 0-0 0-0 0-0.127 0-0.249-0.017-0.366-0.049l0.010 0.002c-0.117-0.032-0.224-0.081-0.32-0.146-0.094-0.064-0.171-0.147-0.226-0.244l-0.002-0.004c-0.057-0.1-0.085-0.219-0.085-0.357h0.504c0 0.076 0.012 0.14 0.035 0.192s0.056 0.095 0.099 0.127c0.044 0.032 0.095 0.056 0.154 0.070 0.060 0.015 0.126 0.022 0.198 0.022 0.087 0 0.158-0.012 0.214-0.037 0.057-0.025 0.099-0.059 0.126-0.102 0.028-0.044 0.042-0.093 0.042-0.147zM27.294 23.151v2.438h-0.501v-2.438h0.501zM28.044 23.151v0.393h-1.989v-0.393h1.989zM29.966 25.197v0.392h-1.297v-0.392h1.297zM28.832 23.151v2.438h-0.502v-2.438h0.502zM29.797 24.144v0.382h-1.128v-0.382h1.128zM29.964 23.151v0.393h-1.296v-0.393h1.296zM30.259 23.151h0.909c0.186 0 0.346 0.028 0.48 0.084 0.135 0.056 0.239 0.138 0.311 0.248s0.109 0.244 0.109 0.403c0 0.131-0.022 0.243-0.067 0.337s-0.107 0.171-0.184 0.232l-0.001 0.001c-0.079 0.061-0.172 0.11-0.28 0.147l-0.159 0.084h-0.79l-0.003-0.392h0.588c0.088 0 0.161-0.016 0.219-0.047s0.102-0.075 0.131-0.131c0.030-0.056 0.045-0.12 0.045-0.194 0-0.078-0.015-0.146-0.044-0.203s-0.073-0.1-0.132-0.131-0.133-0.045-0.223-0.045h-0.407v2.044h-0.502v-2.438zM31.621 25.589l-0.556-1.086 0.531-0.003 0.562 1.066v0.023h-0.537zM34.258 24.72h-0.621v-0.392h0.621c0.096 0 0.174-0.016 0.234-0.047 0.060-0.032 0.104-0.077 0.132-0.134s0.042-0.121 0.042-0.192c0-0.073-0.014-0.14-0.042-0.203s-0.072-0.113-0.132-0.151-0.138-0.057-0.234-0.057h-0.447v2.044h-0.502v-2.438h0.949c0.191 0 0.354 0.035 0.49 0.104 0.137 0.068 0.242 0.162 0.315 0.283s0.109 0.258 0.109 0.413c0 0.157-0.036 0.294-0.109 0.408s-0.177 0.204-0.315 0.266c-0.136 0.062-0.3 0.094-0.49 0.094zM37.154 25.197v0.392h-1.297v-0.392h1.297zM36.021 23.151v2.438h-0.502v-2.438h0.502zM36.985 24.144v0.382h-1.128v-0.382h1.128zM37.153 23.151v0.393h-1.296v-0.393h1.296zM38.571 23.151v2.438h-0.501v-2.438h0.501zM39.321 23.151v0.393h-1.989v-0.393h1.989zM41.242 25.197v0.392h-1.297v-0.392h1.297zM40.109 23.151v2.438h-0.502v-2.438h0.502zM41.073 24.144v0.382h-1.128v-0.382h1.128zM41.241 23.151v0.393h-1.296v-0.393h1.296zM41.535 23.151h0.909c0.186 0 0.347 0.028 0.48 0.084 0.135 0.056 0.239 0.138 0.311 0.248s0.109 0.244 0.109 0.403c0 0.131-0.022 0.243-0.067 0.337s-0.107 0.171-0.184 0.232l-0.001 0.001c-0.079 0.061-0.172 0.11-0.28 0.147l-0.159 0.084h-0.79l-0.003-0.392h0.588c0.088 0 0.161-0.016 0.219-0.047s0.102-0.075 0.131-0.131c0.030-0.056 0.045-0.12 0.045-0.194 0-0.078-0.014-0.146-0.044-0.203s-0.073-0.1-0.132-0.131c-0.059-0.030-0.133-0.045-0.223-0.045h-0.407v2.044h-0.502v-2.438zM42.898 25.589l-0.556-1.086 0.531-0.003 0.563 1.066v0.023h-0.537zM45.001 24.951c0-0.044-0.007-0.083-0.020-0.117-0.012-0.036-0.036-0.068-0.070-0.097-0.035-0.030-0.083-0.060-0.146-0.089s-0.143-0.059-0.243-0.090c-0.129-0.041-0.233-0.082-0.334-0.128l0.019 0.008c-0.098-0.045-0.185-0.096-0.261-0.156-0.075-0.060-0.134-0.13-0.178-0.209-0.042-0.079-0.064-0.171-0.064-0.276 0-0.102 0.022-0.194 0.067-0.276 0.045-0.084 0.107-0.155 0.188-0.214 0.080-0.060 0.175-0.107 0.285-0.139 0.111-0.032 0.232-0.049 0.363-0.049 0.18 0 0.337 0.032 0.47 0.097s0.238 0.154 0.311 0.266c0.075 0.113 0.112 0.242 0.112 0.387h-0.499c0-0.071-0.015-0.134-0.045-0.188-0.029-0.055-0.074-0.098-0.134-0.129-0.059-0.031-0.134-0.047-0.224-0.047-0.087 0-0.16 0.013-0.218 0.040-0.058 0.026-0.102 0.061-0.131 0.105-0.029 0.044-0.044 0.093-0.044 0.147 0 0.041 0.010 0.079 0.030 0.112 0.021 0.034 0.052 0.065 0.094 0.094s0.092 0.056 0.152 0.082c0.060 0.026 0.13 0.051 0.209 0.075 0.133 0.040 0.249 0.085 0.35 0.136 0.102 0.050 0.186 0.107 0.254 0.169s0.119 0.133 0.154 0.213c0.035 0.079 0.052 0.169 0.052 0.27 0 0.106-0.021 0.201-0.062 0.285s-0.101 0.155-0.179 0.213c-0.078 0.058-0.171 0.102-0.28 0.132s-0.229 0.045-0.363 0.045c-0 0-0 0-0 0-0.127 0-0.249-0.017-0.366-0.049l0.010 0.002c-0.117-0.032-0.224-0.081-0.32-0.146-0.094-0.064-0.171-0.147-0.226-0.244l-0.002-0.004c-0.057-0.1-0.085-0.219-0.085-0.357h0.504c0 0.076 0.012 0.14 0.035 0.192s0.056 0.095 0.099 0.127c0.044 0.032 0.095 0.056 0.154 0.070 0.060 0.015 0.126 0.022 0.198 0.022 0.087 0 0.158-0.012 0.214-0.037 0.057-0.025 0.099-0.059 0.126-0.102 0.028-0.044 0.042-0.093 0.042-0.147z"></path>
        </symbol>
        <symbol id="icon-Logo5" viewBox="0 0 59 32">
            <path d="M15.31 25.356c0.14 0.156 0.215 0.352 0.211 0.553 0.001 0.013 0.001 0.027 0.001 0.042 0 0.124-0.028 0.241-0.078 0.345l0.002-0.005c-0.057 0.121-0.143 0.229-0.252 0.316-0.273 0.185-0.61 0.276-0.951 0.255h-1.671v-3.504h1.637c0.323-0.019 0.644 0.063 0.907 0.233 0.106 0.080 0.189 0.18 0.245 0.294s0.080 0.238 0.073 0.361c0.010 0.193-0.058 0.383-0.19 0.536-0.127 0.139-0.303 0.236-0.498 0.274 0.222 0.036 0.422 0.143 0.565 0.3zM13.349 24.827h0.7c0.159 0.011 0.317-0.031 0.445-0.116 0.051-0.041 0.091-0.093 0.118-0.153l0.001-0.003c0.020-0.045 0.032-0.098 0.032-0.153 0-0.012-0.001-0.024-0.002-0.036l0 0.002c0.001-0.009 0.001-0.019 0.001-0.030 0-0.057-0.012-0.11-0.034-0.159l0.001 0.003c-0.028-0.062-0.067-0.114-0.116-0.156l-0.001-0.001c-0.132-0.088-0.295-0.13-0.458-0.118h-0.688v0.919zM14.562 26.171c0.055-0.042 0.098-0.096 0.128-0.158l0.001-0.003c0.024-0.049 0.037-0.107 0.037-0.168 0-0.010-0-0.019-0.001-0.029l0 0.001c0.001-0.007 0.001-0.016 0.001-0.025 0-0.063-0.014-0.122-0.040-0.175l0.001 0.002c-0.031-0.065-0.076-0.119-0.13-0.161l-0.001-0.001c-0.137-0.091-0.305-0.136-0.475-0.127h-0.734v0.964h0.744c0.167 0.009 0.333-0.034 0.47-0.122zM18.656 26.862l-0.911-1.369h-0.342v1.369h-0.783v-3.504h1.483c0.374-0.023 0.744 0.083 1.033 0.298 0.207 0.19 0.332 0.441 0.353 0.707s-0.066 0.529-0.242 0.743c-0.183 0.189-0.433 0.314-0.707 0.356l0.97 1.4h-0.852zM17.403 25.015h0.641c0.445 0 0.667-0.177 0.667-0.531 0.001-0.009 0.001-0.019 0.001-0.029 0-0.066-0.014-0.129-0.038-0.186l0.001 0.003c-0.030-0.071-0.074-0.132-0.127-0.181l-0-0c-0.141-0.105-0.322-0.156-0.504-0.142h-0.648l0.008 1.067zM22.939 26.157h-1.561l-0.276 0.705h-0.821l1.434-3.465h0.888l1.428 3.465h-0.822l-0.27-0.705zM22.73 25.627l-0.57-1.479-0.57 1.479h1.141zM28.299 26.863h-0.778l-1.744-2.383v2.383h-0.776v-3.504h0.776l1.744 2.397v-2.397h0.778v3.504zM32.737 26.024c-0.161 0.265-0.406 0.48-0.704 0.618-0.338 0.154-0.714 0.23-1.093 0.221h-1.384v-3.504h1.384c0.378-0.009 0.754 0.065 1.093 0.216 0.298 0.135 0.543 0.348 0.704 0.611 0.16 0.285 0.243 0.6 0.243 0.919s-0.083 0.634-0.243 0.919zM31.847 25.94c0.222-0.233 0.344-0.529 0.344-0.836s-0.122-0.603-0.344-0.836c-0.268-0.211-0.618-0.318-0.974-0.298h-0.54v2.268h0.54c0.355 0.020 0.705-0.087 0.974-0.298zM23.425 3.867s10.038 3.412 9.825 8.349v8.351s-10.031-3.413-9.821-8.351l-0.004-8.349zM42.194 18.611c1.896-1.175 4.089-1.902 6.378-2.116v-2.614c-2.638 0.915-4.875 2.575-6.378 4.73z"></path>
            <path d="M41.055 19.399c1.552-2.813 4.242-4.983 7.517-6.065v-7.532s-14.296 4.86-13.993 11.891v11.889s0.637-0.217 1.639-0.625c0-0.38 0-0.764 0.046-1.149 0.296-3.264 2.020-6.289 4.792-8.409z"></path>
            <path d="M39.695 23.815c0.084-0.899 0.261-1.726 0.523-2.513l-0.023 0.079c-1.726 1.831-2.772 4.103-2.989 6.497-0.021 0.226-0.032 0.452-0.038 0.685 0.812-0.351 1.757-0.789 2.75-1.304-0.171-0.73-0.269-1.568-0.269-2.429 0-0.357 0.017-0.71 0.050-1.058l-0.003 0.044zM40.264 23.858c-0.028 0.289-0.044 0.625-0.044 0.964 0 0.762 0.080 1.506 0.233 2.223l-0.012-0.070c3.906-2.104 8.294-5.355 8.125-9.284v-0.342c-2.791 0.281-5.401 1.379-7.431 3.126-0.475 1.082-0.769 2.222-0.871 3.383z"></path>
        </symbol>
        <symbol id="icon-Logo6" viewBox="0 0 59 32">
            <path d="M30.588 15.682c-0.254-0.338-0.375-0.737-0.346-1.138v-1.65c0-0.506 0.115-0.89 0.344-1.153s0.624-0.394 1.183-0.393c0.525 0 0.898 0.112 1.119 0.336 0.24 0.286 0.358 0.635 0.331 0.987v0.388h-0.94v-0.393c0-0.015 0.001-0.034 0.001-0.052 0-0.117-0.010-0.233-0.030-0.345l0.002 0.012c-0.014-0.087-0.061-0.168-0.134-0.228-0.096-0.066-0.218-0.097-0.34-0.089-0.129-0.008-0.256 0.025-0.358 0.094-0.082 0.067-0.136 0.156-0.156 0.252-0.024 0.113-0.037 0.242-0.037 0.375 0 0.011 0 0.023 0 0.034l-0-0.002v2.003c-0.015 0.193 0.027 0.387 0.121 0.562 0.047 0.060 0.112 0.107 0.188 0.136 0.055 0.022 0.119 0.035 0.186 0.035 0.020 0 0.040-0.001 0.059-0.003l-0.002 0c0.12 0.009 0.24-0.024 0.333-0.091 0.077-0.066 0.126-0.151 0.14-0.243 0.019-0.108 0.030-0.233 0.030-0.36 0-0.015-0-0.029-0-0.044l0 0.002v-0.406h0.94v0.371c0.026 0.367-0.088 0.732-0.325 1.038-0.216 0.245-0.584 0.368-1.125 0.368s-0.949-0.131-1.181-0.403zM34.501 15.699c-0.237-0.257-0.356-0.631-0.356-1.127v-1.736c0-0.49 0.119-0.861 0.356-1.113s0.634-0.377 1.191-0.376c0.553 0 0.947 0.125 1.185 0.376 0.237 0.252 0.358 0.623 0.358 1.113v1.736c0 0.49-0.121 0.866-0.362 1.125s-0.634 0.388-1.181 0.388-0.951-0.131-1.191-0.386zM36.129 15.282c0.085-0.161 0.124-0.337 0.113-0.514v-2.125c0.011-0.173-0.027-0.346-0.111-0.504-0.048-0.061-0.114-0.109-0.192-0.138-0.054-0.021-0.117-0.034-0.183-0.034-0.023 0-0.045 0.001-0.067 0.004l0.003-0c-0.019-0.002-0.041-0.004-0.063-0.004-0.066 0-0.13 0.012-0.189 0.035l0.004-0.001c-0.078 0.030-0.145 0.077-0.193 0.138-0.086 0.157-0.124 0.33-0.113 0.504v2.136c-0.012 0.177 0.027 0.353 0.113 0.514 0.055 0.054 0.121 0.097 0.194 0.126l0.004 0.001c0.071 0.029 0.154 0.045 0.24 0.045 0 0 0.001 0 0.001 0h-0c0 0 0.001 0 0.001 0 0.087 0 0.169-0.017 0.245-0.047l-0.005 0.002c0.077-0.030 0.143-0.073 0.198-0.127l-0 0v-0.010zM38.364 11.398h1.012l0.761 3.203 0.778-3.203h0.984l0.099 4.623h-0.728l-0.078-3.213-0.751 3.213h-0.584l-0.778-3.225-0.072 3.225h-0.735l0.091-4.623zM43.133 11.398h1.576c0.908 0 1.362 0.438 1.362 1.313 0 0.838-0.478 1.257-1.434 1.256h-0.537v2.055h-0.973l0.006-4.623zM44.479 13.374c0.096 0.011 0.194 0.003 0.286-0.022 0.095-0.026 0.179-0.069 0.25-0.125l-0.002 0.001c0.112-0.156 0.161-0.339 0.14-0.522 0.001-0.015 0.001-0.034 0.001-0.052 0-0.131-0.017-0.258-0.050-0.378l0.002 0.010c-0.015-0.049-0.040-0.092-0.072-0.127l0 0c-0.034-0.038-0.075-0.069-0.121-0.092l-0.002-0.001c-0.113-0.048-0.244-0.075-0.382-0.075-0.018 0-0.036 0.001-0.054 0.001l0.003-0h-0.377v1.382h0.377zM47.474 11.398h1.045l1.072 4.623h-0.907l-0.212-1.066h-0.932l-0.218 1.066h-0.92l1.072-4.623zM48.367 14.419l-0.364-1.941-0.364 1.941h0.728zM50.456 11.398h0.681l1.304 2.637v-2.637h0.807v4.623h-0.648l-1.311-2.753v2.753h-0.835l0.002-4.623zM55.139 14.258l-1.084-2.854h0.912l0.661 1.833 0.621-1.833h0.893l-1.070 2.854v1.763h-0.934v-1.763zM32.090 18.042v0.242h-0.794v1.879h-0.333v-1.879h-0.798v-0.242h1.924zM34.578 20.163h-0.257c-0.002 0-0.005 0-0.007 0-0.024 0-0.047-0.008-0.065-0.021l0 0c-0.019-0.012-0.033-0.028-0.043-0.048l-0-0.001-0.23-0.504h-1.101l-0.23 0.504c-0.007 0.022-0.019 0.042-0.035 0.057l-0 0c-0.019 0.013-0.042 0.020-0.066 0.020-0.002 0-0.004-0-0.006-0h-0.257l0.973-2.12h0.339l0.984 2.112zM32.968 19.375h0.918l-0.389-0.863c-0.025-0.054-0.049-0.121-0.069-0.189l-0.003-0.011c-0.014 0.040-0.025 0.079-0.037 0.113l-0.035 0.089-0.385 0.861zM36.256 19.954c0.061 0.003 0.122 0.003 0.183 0 0.059-0.005 0.112-0.014 0.163-0.027l-0.008 0.002c0.056-0.012 0.103-0.025 0.149-0.041l-0.008 0.003c0.043-0.015 0.086-0.034 0.13-0.052v-0.477h-0.389c-0.001 0-0.002 0-0.004 0-0.009 0-0.017-0.001-0.025-0.004l0.001 0c-0.009-0.003-0.017-0.008-0.024-0.013l0 0c-0.006-0.005-0.011-0.010-0.015-0.017l-0-0c-0.003-0.006-0.005-0.012-0.005-0.019 0-0.001 0-0.001 0-0.002v0-0.163h0.755v0.813c-0.055 0.034-0.119 0.068-0.185 0.097l-0.009 0.004c-0.060 0.026-0.132 0.051-0.206 0.070l-0.010 0.002c-0.068 0.018-0.151 0.034-0.235 0.043l-0.008 0.001c-0.084 0.009-0.182 0.013-0.281 0.013-0.001 0-0.002 0-0.003 0h0c-0.004 0-0.008 0-0.013 0-0.171 0-0.335-0.029-0.488-0.082l0.010 0.003c-0.146-0.050-0.278-0.126-0.389-0.222-0.108-0.097-0.194-0.211-0.251-0.336s-0.090-0.272-0.090-0.426c0-0.005 0-0.009 0-0.014v0.001c-0-0.004-0-0.009-0-0.013 0-0.155 0.032-0.303 0.090-0.437l-0.003 0.007c0.056-0.126 0.141-0.24 0.251-0.336 0.111-0.095 0.243-0.17 0.389-0.22 0.15-0.050 0.323-0.079 0.502-0.079 0.007 0 0.014 0 0.021 0h-0.001c0.001 0 0.002 0 0.003 0 0.094 0 0.187 0.007 0.278 0.020l-0.010-0.001c0.088 0.012 0.166 0.031 0.241 0.056l-0.009-0.003c0.068 0.022 0.133 0.050 0.195 0.084 0.060 0.033 0.116 0.070 0.169 0.111l-0.093 0.131c-0.008 0.012-0.019 0.022-0.031 0.029l-0 0c-0.013 0.007-0.028 0.011-0.044 0.011h-0c-0.022-0.001-0.043-0.007-0.061-0.017l0.001 0c-0.039-0.019-0.070-0.035-0.101-0.053l0.006 0.003c-0.037-0.020-0.080-0.040-0.124-0.055l-0.006-0.002c-0.050-0.018-0.11-0.034-0.171-0.046l-0.008-0.001c-0.071-0.012-0.152-0.018-0.235-0.018-0.004 0-0.009 0-0.013 0h0.001c-0.004-0-0.008-0-0.012-0-0.13 0-0.255 0.022-0.372 0.061l0.008-0.002c-0.108 0.038-0.206 0.095-0.286 0.168-0.081 0.076-0.142 0.166-0.181 0.264-0.041 0.105-0.065 0.226-0.065 0.353s0.024 0.249 0.068 0.36l-0.002-0.007c0.043 0.1 0.109 0.191 0.195 0.267 0.080 0.073 0.177 0.13 0.284 0.168 0.124 0.037 0.255 0.051 0.385 0.042zM39.357 19.921h1.062v0.242h-1.387v-2.12h0.333l-0.008 1.879zM41.524 20.162h-0.333v-2.12h0.333v2.12zM42.761 18.052c0.020 0.010 0.037 0.023 0.051 0.039l1.422 1.598c-0.001-0.011-0.001-0.024-0.001-0.038s0.001-0.026 0.002-0.040l-0 0.002v-1.58h0.29v2.129h-0.167c-0.003 0-0.007 0-0.011 0-0.022 0-0.043-0.004-0.062-0.013l0.001 0c-0.020-0.011-0.038-0.024-0.052-0.040l-0-0-1.42-1.597v1.649h-0.278v-2.12h0.173c0.019 0 0.037 0.003 0.054 0.010zM46.974 18.042v0.233h-1.179v0.7h0.955v0.225h-0.955v0.724h1.179v0.233h-1.521v-2.115h1.521zM12.112 4.948l14.772 3.619v12.683l-14.772-3.618v-12.685zM11.164 3.867v14.382l16.666 4.084v-14.38l-16.666-4.086z"></path>
            <path d="M20.096 29.010l-16.667-4.088v-14.381l16.667 4.086v14.382z"></path>
            <path d="M11.44 4.785l14.58 3.574-6.2 5.352-14.582-3.576 6.202-5.35zM11.164 3.867l-7.735 6.675 16.667 4.086 7.733-6.675-16.666-4.086zM21.034 28.201l6.796-5.866-6.796-1.667v7.532z"></path>
        </symbol>
        <symbol id="icon-smartphone" viewBox="0 0 20 32">
            <path d="M17 0h-14c-1.654 0-3 1.346-3 3v26c0 1.654 1.346 3 3 3h14c1.654 0 3-1.346 3-3v-26c0-1.654-1.346-3-3-3zM3 2h14c0.552 0 1 0.448 1 1v21h-16v-21c0-0.552 0.448-1 1-1zM17 30h-14c-0.552 0-1-0.448-1-1v-3h16v3c0 0.552-0.448 1-1 1z"></path>
            <path d="M4.707 27.478c0.391 0.365 0.391 0.956 0 1.32s-1.024 0.364-1.414 0c-0.391-0.365-0.391-0.956 0-1.32s1.024-0.365 1.414 0z"></path>
        </symbol>
        <symbol id="icon-envelope" viewBox="0 0 43 32">
            <path d="M38.667 0h-34.667c-2.206 0-4 1.794-4 3.999v23.992c0 2.205 1.794 3.999 4 3.999h34.667c2.206 0 4-1.794 4-3.999v-23.992c0-2.205-1.794-3.999-4-3.999zM38.667 2.666c0.181 0 0.353 0.038 0.511 0.103l-17.844 15.46-17.844-15.46c0.158-0.066 0.33-0.103 0.511-0.103h34.667zM38.667 29.323h-34.667c-0.736 0-1.333-0.597-1.333-1.333v-22.405l17.793 15.415c0.251 0.217 0.563 0.325 0.874 0.325s0.622-0.108 0.874-0.325l17.793-15.415v22.405c0 0.735-0.598 1.333-1.333 1.333z"></path>
        </symbol>

        /*icons-homework form*/
        <symbol id="icon-airplain-send" viewBox="0 0 32 32">
            <path fill="#fff" style="fill: var(--color1, #fff)" d="M32 0l-32 18 10.227 3.788 15.773-14.788-11.998 16.186 0.010 0.004-0.012-0.004v8.814l5.735-6.691 7.265 2.691 5-28z"></path>
        </symbol>
        <symbol id="icon-email" viewBox="0 0 32 32">
            <path d="M26.667 5.333h-21.333c-1.467 0-2.653 1.2-2.653 2.667l-0.013 16c0 1.467 1.2 2.667 2.667 2.667h21.333c1.467 0 2.667-1.2 2.667-2.667v-16c0-1.467-1.2-2.667-2.667-2.667zM26.133 11l-9.427 5.893c-0.427 0.267-0.987 0.267-1.413 0l-9.427-5.893c-0.333-0.213-0.533-0.573-0.533-0.96 0-0.893 0.973-1.427 1.733-0.96l8.933 5.587 8.933-5.587c0.76-0.467 1.733 0.067 1.733 0.96 0 0.387-0.2 0.747-0.533 0.96z"></path>
        </symbol>
        <symbol id="icon-personne" viewBox="0 0 32 32">
            <path d="M16 16c2.947 0 5.333-2.387 5.333-5.333s-2.387-5.333-5.333-5.333c-2.947 0-5.333 2.387-5.333 5.333s2.387 5.333 5.333 5.333zM16 18.667c-3.56 0-10.667 1.787-10.667 5.333v1.333c0 0.733 0.6 1.333 1.333 1.333h18.667c0.733 0 1.333-0.6 1.333-1.333v-1.333c0-3.547-7.107-5.333-10.667-5.333z"></path>
        </symbol>
        <symbol id="icon-phone" viewBox="0 0 32 32">
            <path d="M24.882 19.773l-3.268-0.373c-0.785-0.090-1.557 0.18-2.11 0.733l-2.367 2.367c-3.641-1.853-6.626-4.825-8.478-8.478l2.38-2.38c0.553-0.553 0.823-1.325 0.733-2.11l-0.373-3.242c-0.154-1.299-1.248-2.277-2.56-2.277h-2.226c-1.454 0-2.663 1.209-2.573 2.663 0.682 10.987 9.469 19.761 20.443 20.443 1.454 0.090 2.663-1.119 2.663-2.573v-2.226c0.013-1.3-0.965-2.393-2.264-2.547z"></path>
        </symbol>
        <symbol id="icon-unchecked" viewBox="0 0 34 32">
            <path d="M30.341 3.556v24.889h-26.548v-24.889h26.548zM30.341 0h-26.548c-2.086 0-3.793 1.6-3.793 3.556v24.889c0 1.956 1.707 3.556 3.793 3.556h26.548c2.086 0 3.793-1.6 3.793-3.556v-24.889c0-1.956-1.707-3.556-3.793-3.556z"></path>
        </symbol>
        <symbol id="icon-checked" viewBox="0 0 34 32">
            <path fill="#2196f3" style="fill: var(--color1, #2196f3)" d="M4.267 0h25.6c2.356 0 4.267 1.91 4.267 4.267v23.467c0 2.356-1.91 4.267-4.267 4.267h-25.6c-2.356 0-4.267-1.91-4.267-4.267v-23.467c0-2.356 1.91-4.267 4.267-4.267z"></path>
            <path fill="#fff" style="fill: var(--color2, #fff); stroke: var(--color2, #fff)" stroke="#fff" stroke-linejoin="miter" stroke-linecap="butt" stroke-miterlimit="4" stroke-width="0.4267" d="M8.442 16.537l-0.147-0.14-2.205 2.088 7.767 7.41 16.318-15.567-2.19-2.089-14.128 13.465-5.416-5.167z"></path>
        </symbol>
    </defs>
</svg>
